# xmcd
#
# Track frame offsets:
#	150
#	23897
#	41025
#	58143
#	77452
#	95999
#	118146
#	132956
#	150096
#	173218
#	187920
#	205073
#
# Disc length: 2993 seconds
#
# Revision: 1
# Processed by: cddbd v1.5.2PL0 Copyright (c) Steve Scherf et al.
# Submitted via: audiograbber 1.83.01
#
DISCID=9a0baf0c
DTITLE=Cécile Verny Quartet - Fear&Faith
DYEAR=2012
DGENRE=Pop/Funk
TTITLE0=The Wild Heart Of The Earth
TTITLE1=No ID
TTITLE2=Car Désespérée
TTITLE3=How Do I Love Thee?
TTITLE4=Snow Falling
TTITLE5=Back To My Own
TTITLE6=As Soon As They Have All Aligned
TTITLE7=Seule, Toute Seule
TTITLE8=Humming
TTITLE9=Lord Have Mercy
TTITLE10=They Ask Me How I'm Feeling
TTITLE11=Time To Let You Go
EXTD=
EXTT0=
EXTT1=
EXTT2=
EXTT3=
EXTT4=
EXTT5=
EXTT6=
EXTT7=
EXTT8=
EXTT9=
EXTT10=
EXTT11=
PLAYORDER=
